<svg id="visual" viewBox="0 0 900 600" width="900" height="600" xmlns="http://www.w3.org/2000/svg" xmlns:xlink="http://www.w3.org/1999/xlink" version="1.1"><path d="M0 133L82 133L82 139L164 139L164 121L245 121L245 55L327 55L327 91L409 91L409 97L491 97L491 79L573 79L573 85L655 85L655 55L736 55L736 121L818 121L818 109L900 109L900 61L900 0L900 0L818 0L818 0L736 0L736 0L655 0L655 0L573 0L573 0L491 0L491 0L409 0L409 0L327 0L327 0L245 0L245 0L164 0L164 0L82 0L82 0L0 0Z" fill="#f2f2f2"></path><path d="M0 277L82 277L82 241L164 241L164 331L245 331L245 211L327 211L327 163L409 163L409 253L491 253L491 301L573 301L573 247L655 247L655 289L736 289L736 277L818 277L818 193L900 193L900 325L900 59L900 107L818 107L818 119L736 119L736 53L655 53L655 83L573 83L573 77L491 77L491 95L409 95L409 89L327 89L327 53L245 53L245 119L164 119L164 137L82 137L82 131L0 131Z" fill="#bcbfc3"></path><path d="M0 343L82 343L82 313L164 313L164 409L245 409L245 247L327 247L327 217L409 217L409 313L491 313L491 361L573 361L573 331L655 331L655 343L736 343L736 361L818 361L818 235L900 235L900 373L900 323L900 191L818 191L818 275L736 275L736 287L655 287L655 245L573 245L573 299L491 299L491 251L409 251L409 161L327 161L327 209L245 209L245 329L164 329L164 239L82 239L82 275L0 275Z" fill="#898f97"></path><path d="M0 427L82 427L82 391L164 391L164 463L245 463L245 337L327 337L327 313L409 313L409 385L491 385L491 451L573 451L573 361L655 361L655 403L736 403L736 439L818 439L818 313L900 313L900 457L900 371L900 233L818 233L818 359L736 359L736 341L655 341L655 329L573 329L573 359L491 359L491 311L409 311L409 215L327 215L327 245L245 245L245 407L164 407L164 311L82 311L82 341L0 341Z" fill="#59626c"></path><path d="M0 565L82 565L82 547L164 547L164 565L245 565L245 499L327 499L327 499L409 499L409 541L491 541L491 553L573 553L573 559L655 559L655 559L736 559L736 505L818 505L818 511L900 511L900 553L900 455L900 311L818 311L818 437L736 437L736 401L655 401L655 359L573 359L573 449L491 449L491 383L409 383L409 311L327 311L327 335L245 335L245 461L164 461L164 389L82 389L82 425L0 425Z" fill="#2d3844"></path><path d="M0 601L82 601L82 601L164 601L164 601L245 601L245 601L327 601L327 601L409 601L409 601L491 601L491 601L573 601L573 601L655 601L655 601L736 601L736 601L818 601L818 601L900 601L900 601L900 551L900 509L818 509L818 503L736 503L736 557L655 557L655 557L573 557L573 551L491 551L491 539L409 539L409 497L327 497L327 497L245 497L245 563L164 563L164 545L82 545L82 563L0 563Z" fill="#001220"></path></svg>